<mxfile host="app.diagrams.net" modified="2022-11-27T22:04:12.532Z" agent="5.0 (Macintosh; Intel Mac OS X 10_15_7) AppleWebKit/605.1.15 (KHTML, like Gecko) Version/16.1 Safari/605.1.15" etag="EqWgQNN6URmP_wM5IfOv" version="20.6.0" type="github">
  <diagram id="V0SKFslh1R-l_xW6zh11" name="Page-1">
    <mxGraphModel dx="1298" dy="755" grid="1" gridSize="10" guides="1" tooltips="1" connect="1" arrows="1" fold="1" page="1" pageScale="1" pageWidth="850" pageHeight="1100" math="0" shadow="0">
      <root>
        <mxCell id="0" />
        <mxCell id="1" parent="0" />
        <mxCell id="eezExMRovuZgALRwF7a9-36" value="Private Subnet 1" style="sketch=0;outlineConnect=0;gradientColor=none;html=1;whiteSpace=wrap;fontSize=12;fontStyle=0;shape=mxgraph.aws4.group;grIcon=mxgraph.aws4.group_subnet;strokeColor=#879196;fillColor=none;verticalAlign=top;align=left;spacingLeft=30;fontColor=#879196;dashed=0;" parent="1" vertex="1">
          <mxGeometry x="130" y="490" width="250" height="130" as="geometry" />
        </mxCell>
        <mxCell id="eezExMRovuZgALRwF7a9-37" value="Private Subnet 2" style="sketch=0;outlineConnect=0;gradientColor=none;html=1;whiteSpace=wrap;fontSize=12;fontStyle=0;shape=mxgraph.aws4.group;grIcon=mxgraph.aws4.group_subnet;strokeColor=#879196;fillColor=none;verticalAlign=top;align=left;spacingLeft=30;fontColor=#879196;dashed=0;" parent="1" vertex="1">
          <mxGeometry x="380" y="490" width="250" height="130" as="geometry" />
        </mxCell>
        <mxCell id="eezExMRovuZgALRwF7a9-2" value="VPC" style="sketch=0;outlineConnect=0;gradientColor=none;html=1;whiteSpace=wrap;fontSize=12;fontStyle=0;shape=mxgraph.aws4.group;grIcon=mxgraph.aws4.group_vpc;strokeColor=#879196;fillColor=none;verticalAlign=top;align=left;spacingLeft=30;fontColor=#879196;dashed=0;movable=0;resizable=0;rotatable=0;deletable=0;editable=0;connectable=0;" parent="1" vertex="1">
          <mxGeometry x="130" y="180" width="510" height="640" as="geometry" />
        </mxCell>
        <mxCell id="eezExMRovuZgALRwF7a9-69" style="edgeStyle=orthogonalEdgeStyle;shape=flexArrow;rounded=0;orthogonalLoop=1;jettySize=auto;html=1;entryX=0.75;entryY=0;entryDx=0;entryDy=0;entryPerimeter=0;strokeWidth=0;startArrow=block;fillColor=#fff2cc;strokeColor=#d6b656;" parent="1" source="eezExMRovuZgALRwF7a9-12" target="eezExMRovuZgALRwF7a9-4" edge="1">
          <mxGeometry relative="1" as="geometry" />
        </mxCell>
        <mxCell id="eezExMRovuZgALRwF7a9-72" style="edgeStyle=orthogonalEdgeStyle;shape=flexArrow;rounded=0;orthogonalLoop=1;jettySize=auto;html=1;exitX=1;exitY=0.5;exitDx=0;exitDy=0;exitPerimeter=0;strokeWidth=0;startArrow=block;fillColor=#fff2cc;strokeColor=#d6b656;" parent="1" source="eezExMRovuZgALRwF7a9-12" target="eezExMRovuZgALRwF7a9-5" edge="1">
          <mxGeometry relative="1" as="geometry" />
        </mxCell>
        <mxCell id="eezExMRovuZgALRwF7a9-12" value="App-LoadBalancer" style="outlineConnect=0;dashed=0;verticalLabelPosition=bottom;verticalAlign=top;align=center;html=1;shape=mxgraph.aws3.application_load_balancer;fillColor=#F58534;gradientColor=none;" parent="1" vertex="1">
          <mxGeometry x="350.5" y="250" width="69" height="72" as="geometry" />
        </mxCell>
        <mxCell id="eezExMRovuZgALRwF7a9-28" value="Availability Zone 2" style="fillColor=none;strokeColor=#147EBA;dashed=1;verticalAlign=top;fontStyle=0;fontColor=#147EBA;movable=0;resizable=0;rotatable=0;deletable=0;editable=0;connectable=0;" parent="1" vertex="1">
          <mxGeometry x="380" y="305" width="250" height="390" as="geometry" />
        </mxCell>
        <mxCell id="eezExMRovuZgALRwF7a9-27" value="Availability Zone 1" style="fillColor=none;strokeColor=#147EBA;dashed=1;verticalAlign=top;fontStyle=0;fontColor=#147EBA;movable=0;resizable=0;rotatable=0;deletable=0;editable=0;connectable=0;" parent="1" vertex="1">
          <mxGeometry x="130" y="305" width="250" height="390" as="geometry" />
        </mxCell>
        <mxCell id="eezExMRovuZgALRwF7a9-26" value="My App VPC on Region East-1" style="sketch=0;points=[[0,0,0],[0.25,0,0],[0.5,0,0],[0.75,0,0],[1,0,0],[0,1,0],[0.25,1,0],[0.5,1,0],[0.75,1,0],[1,1,0],[0,0.25,0],[0,0.5,0],[0,0.75,0],[1,0.25,0],[1,0.5,0],[1,0.75,0]];outlineConnect=0;fontColor=#232F3E;gradientColor=#945DF2;gradientDirection=north;fillColor=#5A30B5;strokeColor=#ffffff;dashed=0;verticalLabelPosition=bottom;verticalAlign=top;align=center;html=1;fontSize=12;fontStyle=0;aspect=fixed;shape=mxgraph.aws4.resourceIcon;resIcon=mxgraph.aws4.vpc;" parent="1" vertex="1">
          <mxGeometry x="130" y="180" width="78" height="78" as="geometry" />
        </mxCell>
        <mxCell id="eezExMRovuZgALRwF7a9-55" style="edgeStyle=orthogonalEdgeStyle;shape=flexArrow;rounded=0;orthogonalLoop=1;jettySize=auto;html=1;strokeWidth=0;startArrow=block;fillColor=#dae8fc;strokeColor=#6c8ebf;width=8;endSize=3;endWidth=14;" parent="1" source="eezExMRovuZgALRwF7a9-21" target="eezExMRovuZgALRwF7a9-22" edge="1">
          <mxGeometry relative="1" as="geometry" />
        </mxCell>
        <mxCell id="eezExMRovuZgALRwF7a9-21" value="Amazon&lt;br&gt;Aurora - Primary" style="sketch=0;outlineConnect=0;fontColor=#232F3E;gradientColor=none;strokeColor=#ffffff;fillColor=#232F3E;dashed=0;verticalLabelPosition=middle;verticalAlign=bottom;align=center;html=1;whiteSpace=wrap;fontSize=10;fontStyle=1;spacing=3;shape=mxgraph.aws4.productIcon;prIcon=mxgraph.aws4.aurora;" parent="1" vertex="1">
          <mxGeometry x="550" y="500" width="80" height="120" as="geometry" />
        </mxCell>
        <mxCell id="eezExMRovuZgALRwF7a9-22" value="&lt;br&gt;&lt;br&gt;&lt;br&gt;&lt;br&gt;&lt;br&gt;&lt;br&gt;&lt;br&gt;&amp;nbsp; &amp;nbsp; &amp;nbsp; &amp;nbsp; &amp;nbsp; &amp;nbsp; &amp;nbsp; &amp;nbsp; &amp;nbsp; &amp;nbsp; &amp;nbsp; Amazon&lt;br&gt;Aurora - Replica READ" style="sketch=0;outlineConnect=0;fontColor=#232F3E;gradientColor=none;strokeColor=#ffffff;fillColor=#232F3E;dashed=0;verticalLabelPosition=middle;verticalAlign=bottom;align=center;html=1;whiteSpace=wrap;fontSize=10;fontStyle=1;spacing=3;shape=mxgraph.aws4.productIcon;prIcon=mxgraph.aws4.aurora;" parent="1" vertex="1">
          <mxGeometry x="264" y="500" width="80" height="120" as="geometry" />
        </mxCell>
        <mxCell id="eezExMRovuZgALRwF7a9-34" value="Public Subnet 1" style="sketch=0;outlineConnect=0;gradientColor=none;html=1;whiteSpace=wrap;fontSize=12;fontStyle=0;shape=mxgraph.aws4.group;grIcon=mxgraph.aws4.group_subnet;strokeColor=#879196;fillColor=none;verticalAlign=top;align=left;spacingLeft=30;fontColor=#879196;dashed=0;movable=0;resizable=0;rotatable=0;deletable=0;editable=0;connectable=0;" parent="1" vertex="1">
          <mxGeometry x="130" y="360" width="250" height="130" as="geometry" />
        </mxCell>
        <mxCell id="eezExMRovuZgALRwF7a9-35" value="Public Subnet 2&lt;span style=&quot;caret-color: rgba(0, 0, 0, 0); color: rgba(0, 0, 0, 0); font-family: monospace; font-size: 0px;&quot;&gt;%3CmxGraphModel%3E%3Croot%3E%3CmxCell%20id%3D%220%22%2F%3E%3CmxCell%20id%3D%221%22%20parent%3D%220%22%2F%3E%3CmxCell%20id%3D%222%22%20value%3D%22Public%20Subnet%201%22%20style%3D%22sketch%3D0%3BoutlineConnect%3D0%3BgradientColor%3Dnone%3Bhtml%3D1%3BwhiteSpace%3Dwrap%3BfontSize%3D12%3BfontStyle%3D0%3Bshape%3Dmxgraph.aws4.group%3BgrIcon%3Dmxgraph.aws4.group_subnet%3BstrokeColor%3D%23879196%3BfillColor%3Dnone%3BverticalAlign%3Dtop%3Balign%3Dleft%3BspacingLeft%3D30%3BfontColor%3D%23879196%3Bdashed%3D0%3B%22%20vertex%3D%221%22%20parent%3D%221%22%3E%3CmxGeometry%20x%3D%22130%22%20y%3D%22360%22%20width%3D%22250%22%20height%3D%22130%22%20as%3D%22geometry%22%2F%3E%3C%2FmxCell%3E%3C%2Froot%3E%3C%2FmxGraphModel%3E&lt;/span&gt;" style="sketch=0;outlineConnect=0;gradientColor=none;html=1;whiteSpace=wrap;fontSize=12;fontStyle=0;shape=mxgraph.aws4.group;grIcon=mxgraph.aws4.group_subnet;strokeColor=#879196;fillColor=none;verticalAlign=top;align=left;spacingLeft=30;fontColor=#879196;dashed=0;movable=0;resizable=0;rotatable=0;deletable=0;editable=0;connectable=0;" parent="1" vertex="1">
          <mxGeometry x="380" y="360" width="250" height="130" as="geometry" />
        </mxCell>
        <mxCell id="eezExMRovuZgALRwF7a9-43" style="edgeStyle=orthogonalEdgeStyle;rounded=0;orthogonalLoop=1;jettySize=auto;html=1;shape=flexArrow;strokeWidth=0;startArrow=block;fillColor=#e1d5e7;strokeColor=#9673a6;width=6;endSize=6;endWidth=6;" parent="1" source="eezExMRovuZgALRwF7a9-4" target="eezExMRovuZgALRwF7a9-22" edge="1">
          <mxGeometry relative="1" as="geometry">
            <Array as="points">
              <mxPoint x="307" y="450" />
              <mxPoint x="304" y="450" />
            </Array>
          </mxGeometry>
        </mxCell>
        <mxCell id="eezExMRovuZgALRwF7a9-44" style="edgeStyle=orthogonalEdgeStyle;shape=flexArrow;rounded=0;orthogonalLoop=1;jettySize=auto;html=1;strokeWidth=0;startArrow=block;fillColor=#e1d5e7;strokeColor=#9673a6;width=8;startSize=3.33;startWidth=14;" parent="1" source="eezExMRovuZgALRwF7a9-4" target="eezExMRovuZgALRwF7a9-21" edge="1">
          <mxGeometry relative="1" as="geometry">
            <Array as="points">
              <mxPoint x="510" y="410" />
              <mxPoint x="510" y="520" />
            </Array>
          </mxGeometry>
        </mxCell>
        <mxCell id="eezExMRovuZgALRwF7a9-4" value="App-server-1" style="sketch=0;points=[[0,0,0],[0.25,0,0],[0.5,0,0],[0.75,0,0],[1,0,0],[0,1,0],[0.25,1,0],[0.5,1,0],[0.75,1,0],[1,1,0],[0,0.25,0],[0,0.5,0],[0,0.75,0],[1,0.25,0],[1,0.5,0],[1,0.75,0]];outlineConnect=0;fontColor=#232F3E;gradientColor=#F78E04;gradientDirection=north;fillColor=#D05C17;strokeColor=#ffffff;dashed=0;verticalLabelPosition=bottom;verticalAlign=top;align=center;html=1;fontSize=12;fontStyle=0;aspect=fixed;shape=mxgraph.aws4.resourceIcon;resIcon=mxgraph.aws4.ec2;" parent="1" vertex="1">
          <mxGeometry x="280" y="370" width="54" height="54" as="geometry" />
        </mxCell>
        <mxCell id="eezExMRovuZgALRwF7a9-31" value="EC2 AutoScaling &amp;nbsp;" style="sketch=0;points=[[0,0,0],[0.25,0,0],[0.5,0,0],[0.75,0,0],[1,0,0],[0,1,0],[0.25,1,0],[0.5,1,0],[0.75,1,0],[1,1,0],[0,0.25,0],[0,0.5,0],[0,0.75,0],[1,0.25,0],[1,0.5,0],[1,0.75,0]];outlineConnect=0;fontColor=#232F3E;gradientColor=#945DF2;gradientDirection=north;fillColor=#5A30B5;strokeColor=#ffffff;dashed=0;verticalLabelPosition=bottom;verticalAlign=top;align=center;html=1;fontSize=12;fontStyle=0;aspect=fixed;shape=mxgraph.aws4.resourceIcon;resIcon=mxgraph.aws4.elastic_load_balancing;" parent="1" vertex="1">
          <mxGeometry x="365" y="424" width="40" height="40" as="geometry" />
        </mxCell>
        <mxCell id="eezExMRovuZgALRwF7a9-48" style="edgeStyle=orthogonalEdgeStyle;shape=flexArrow;rounded=0;orthogonalLoop=1;jettySize=auto;html=1;strokeWidth=0;startArrow=block;" parent="1" source="eezExMRovuZgALRwF7a9-5" edge="1">
          <mxGeometry relative="1" as="geometry">
            <mxPoint x="591" y="451" as="targetPoint" />
          </mxGeometry>
        </mxCell>
        <mxCell id="eezExMRovuZgALRwF7a9-50" style="edgeStyle=orthogonalEdgeStyle;shape=flexArrow;rounded=0;orthogonalLoop=1;jettySize=auto;html=1;strokeWidth=0;startArrow=block;" parent="1" source="eezExMRovuZgALRwF7a9-5" edge="1">
          <mxGeometry relative="1" as="geometry">
            <mxPoint x="591" y="451" as="targetPoint" />
          </mxGeometry>
        </mxCell>
        <mxCell id="eezExMRovuZgALRwF7a9-51" style="edgeStyle=orthogonalEdgeStyle;shape=flexArrow;rounded=0;orthogonalLoop=1;jettySize=auto;html=1;exitX=0.5;exitY=1;exitDx=0;exitDy=0;exitPerimeter=0;strokeWidth=0;startArrow=block;fillColor=#e1d5e7;strokeColor=#9673a6;width=6;endSize=5.33;endWidth=16;" parent="1" source="eezExMRovuZgALRwF7a9-5" target="eezExMRovuZgALRwF7a9-21" edge="1">
          <mxGeometry relative="1" as="geometry" />
        </mxCell>
        <mxCell id="eezExMRovuZgALRwF7a9-5" value="AppServer2" style="sketch=0;points=[[0,0,0],[0.25,0,0],[0.5,0,0],[0.75,0,0],[1,0,0],[0,1,0],[0.25,1,0],[0.5,1,0],[0.75,1,0],[1,1,0],[0,0.25,0],[0,0.5,0],[0,0.75,0],[1,0.25,0],[1,0.5,0],[1,0.75,0]];outlineConnect=0;fontColor=#232F3E;gradientColor=#F78E04;gradientDirection=north;fillColor=#D05C17;strokeColor=#ffffff;dashed=0;verticalLabelPosition=bottom;verticalAlign=top;align=center;html=1;fontSize=12;fontStyle=0;aspect=fixed;shape=mxgraph.aws4.resourceIcon;resIcon=mxgraph.aws4.ec2;" parent="1" vertex="1">
          <mxGeometry x="565" y="374" width="50" height="50" as="geometry" />
        </mxCell>
        <mxCell id="eezExMRovuZgALRwF7a9-56" style="edgeStyle=orthogonalEdgeStyle;shape=flexArrow;rounded=0;orthogonalLoop=1;jettySize=auto;html=1;strokeWidth=0;startArrow=block;fillColor=#dae8fc;strokeColor=#6c8ebf;" parent="1" edge="1">
          <mxGeometry relative="1" as="geometry">
            <mxPoint x="840" y="730" as="sourcePoint" />
            <mxPoint x="670" y="730" as="targetPoint" />
          </mxGeometry>
        </mxCell>
        <mxCell id="eezExMRovuZgALRwF7a9-58" style="edgeStyle=orthogonalEdgeStyle;shape=flexArrow;rounded=0;orthogonalLoop=1;jettySize=auto;html=1;strokeWidth=0;startArrow=block;fillColor=#e1d5e7;strokeColor=#9673a6;" parent="1" edge="1">
          <mxGeometry relative="1" as="geometry">
            <mxPoint x="840" y="680" as="sourcePoint" />
            <mxPoint x="670" y="680" as="targetPoint" />
          </mxGeometry>
        </mxCell>
        <mxCell id="eezExMRovuZgALRwF7a9-65" style="edgeStyle=orthogonalEdgeStyle;shape=flexArrow;rounded=0;orthogonalLoop=1;jettySize=auto;html=1;exitX=0.5;exitY=1;exitDx=0;exitDy=0;strokeWidth=0;startArrow=block;fillColor=#d5e8d4;strokeColor=#82b366;" parent="1" source="eezExMRovuZgALRwF7a9-60" target="eezExMRovuZgALRwF7a9-12" edge="1">
          <mxGeometry relative="1" as="geometry" />
        </mxCell>
        <mxCell id="eezExMRovuZgALRwF7a9-60" value="" style="aspect=fixed;perimeter=ellipsePerimeter;html=1;align=center;shadow=0;dashed=0;spacingTop=3;image;image=img/lib/active_directory/internet_globe.svg;" parent="1" vertex="1">
          <mxGeometry x="360" y="90" width="50" height="50" as="geometry" />
        </mxCell>
      </root>
    </mxGraphModel>
  </diagram>
</mxfile>
